<mxfile host="app.diagrams.net" modified="2023-06-11T21:33:20.023Z" agent="Mozilla/5.0 (Windows NT 10.0; Win64; x64) AppleWebKit/537.36 (KHTML, like Gecko) Chrome/114.0.0.0 Safari/537.36" version="21.3.7" etag="alOoMK61nc_v0-uYm3SB" type="github">
  <diagram name="PÃ¡gina-1" id="MxPD2p-yVIP08qmLDrz8">
    <mxGraphModel>
      <root>
        <mxCell id="0" />
        <mxCell id="1" parent="0" />
      </root>
    </mxGraphModel>
  </diagram>
</mxfile>
